M48
; DRILL file {KiCad (6.0.10)} date Tue Apr  4 20:58:45 2023
; FORMAT={-:-/ absolute / metric / decimal}
; #@! TF.CreationDate,2023-04-04T20:58:45-04:00
; #@! TF.GenerationSoftware,Kicad,Pcbnew,(6.0.10)
; #@! TF.FileFunction,Plated,1,2,PTH
FMAT,2
METRIC
; #@! TA.AperFunction,Plated,PTH,ComponentDrill
T1C1.000
%
G90
G05
T1
X124.46Y-25.4
X124.46Y-27.94
X124.46Y-30.48
X124.46Y-33.02
X124.46Y-35.56
X124.46Y-38.1
X124.46Y-40.64
X124.46Y-43.18
X124.46Y-45.72
X124.46Y-48.26
X124.46Y-50.8
X124.46Y-53.34
X149.86Y-25.4
X149.86Y-27.94
X149.86Y-30.48
X149.86Y-33.02
X149.86Y-35.56
X149.86Y-38.1
X149.86Y-40.64
X149.86Y-43.18
X149.86Y-45.72
X149.86Y-48.26
X149.86Y-50.8
X149.86Y-53.34
T0
M30
